<svg width="56" height="55" viewBox="0 0 56 55" fill="none" xmlns="http://www.w3.org/2000/svg">
<g clip-path="url(#clip0_1979_208)">
<path d="M47.6695 0.80383C47.3609 0.625798 46.9931 0.575068 46.6466 0.662739C46.3 0.750411 46.0029 0.969345 45.8203 1.27163L36.1489 17.3631C36.0993 17.4465 36.0593 17.5351 36.0295 17.6272C34.9474 18.0212 33.9374 18.5848 33.0387 19.2959C30.1083 14.4064 24.7391 11.3276 18.8732 11.3276C9.82213 11.3276 2.45967 18.5483 2.43444 27.4317H0.300903L0.491673 28.9239C1.60183 37.597 7.04798 45.1725 14.8787 49.1615V54.2826H35.0843C37.6455 54.2826 39.7292 52.2343 39.7292 49.7182V49.1621C47.5624 45.1713 53.0061 37.5958 54.1187 28.9239L54.3095 27.4305H50.4566C50.4387 22.8963 47.4781 19.0415 43.36 17.5861L55.4264 6.18174C55.9631 5.67465 55.9803 4.83454 55.4621 4.30751C55.3394 4.18203 55.1926 4.08154 55.0303 4.01178C54.868 3.94202 54.6932 3.90435 54.5161 3.90092C54.3389 3.8975 54.1628 3.92839 53.9978 3.99183C53.8328 4.05526 53.6821 4.15001 53.5544 4.27064L40.1132 16.9762C39.9926 16.9714 39.8726 16.9581 39.7501 16.9581C39.6726 16.9581 39.5981 16.969 39.5218 16.9702L48.1458 2.62004C48.236 2.47007 48.2952 2.30413 48.3201 2.13169C48.3449 1.95925 48.3349 1.78369 48.2907 1.61504C48.2465 1.44638 48.1689 1.28794 48.0623 1.14875C47.9557 1.00956 47.8222 0.892356 47.6695 0.80383ZM18.8726 13.9803C24.04 13.9803 28.7501 16.8372 31.0929 21.3134C30.2388 22.4671 29.6332 23.7798 29.3132 25.1712C28.2394 20.4763 23.9698 16.9569 18.8726 16.9569C12.9852 16.9569 8.19567 21.6519 8.17044 27.4311H5.13537C5.15998 20.0109 11.3114 13.9803 18.8726 13.9803ZM18.8726 22.5935C16.1464 22.5935 13.928 24.7603 13.9027 27.4311H10.872C10.8972 23.1145 14.4744 19.6102 18.8726 19.6102C23.272 19.6102 26.8529 23.1145 26.8757 27.4311H23.8412C23.8172 24.7603 21.5987 22.5935 18.8726 22.5935ZM21.1384 27.4317H16.6067C16.6188 26.8487 16.8628 26.2934 17.2866 25.885C17.7103 25.4765 18.2801 25.2472 18.8738 25.2462C19.4673 25.2473 20.0367 25.4768 20.46 25.8853C20.8833 26.2938 21.1269 26.8489 21.1384 27.4317ZM51.1975 30.0844C49.6966 37.7928 44.3741 44.3644 36.9975 47.5121H32.6744V50.1654H36.9686C36.8675 50.5817 36.6267 50.9525 36.2851 51.2182C35.9434 51.4838 35.5207 51.6288 35.0849 51.6299H17.5803V50.1654H22.6443V47.5121H17.6129C10.2363 44.3662 4.91321 37.7928 3.41106 30.0844H51.1975ZM37.4849 27.4317C37.4968 26.8489 37.7405 26.2939 38.1639 25.8854C38.5873 25.4769 39.1567 25.2475 39.7501 25.2462C40.3441 25.2467 40.9143 25.4758 41.3383 25.8844C41.7624 26.2929 42.0065 26.8484 42.0184 27.4317H37.4849ZM39.7501 19.6108C44.1514 19.6108 47.7335 23.1151 47.7569 27.4317H44.7206C44.696 24.7609 42.4769 22.5941 39.7501 22.5941C37.024 22.5941 34.8074 24.7609 34.7827 27.4317H31.7495C31.7741 23.1151 35.3514 19.6108 39.7501 19.6108Z" fill="white"/>
<path d="M39.1742 42.9139C39.3902 42.9139 39.6086 42.8637 39.8098 42.7568C41.4592 41.8897 42.9066 40.6947 44.0599 39.248C45.2131 37.8012 46.047 36.1345 46.5083 34.3539C46.5525 34.1848 46.5623 34.0088 46.5371 33.8361C46.5119 33.6633 46.4522 33.4971 46.3615 33.347C46.2708 33.1969 46.1507 33.0659 46.0083 32.9615C45.8659 32.8571 45.704 32.7813 45.5317 32.7385C45.3594 32.6957 45.1802 32.6867 45.0043 32.7121C44.8285 32.7374 44.6595 32.7967 44.507 32.8863C44.3546 32.976 44.2216 33.0943 44.1158 33.2346C44.01 33.3748 43.9334 33.5342 43.8905 33.7035C43.5222 35.1266 42.8561 36.4588 41.9346 37.6151C41.0131 38.7714 39.8565 39.7265 38.5385 40.4196C38.2727 40.5585 38.0618 40.7808 37.9396 41.051C37.8173 41.3213 37.7906 41.6239 37.8637 41.9108C37.9368 42.1976 38.1055 42.4522 38.343 42.634C38.5805 42.8158 38.8731 42.9143 39.1742 42.9139Z" fill="white"/>
<path d="M35.9059 45.0064C36.7902 45.0064 37.5071 44.3023 37.5071 43.4337C37.5071 42.5652 36.7902 41.8611 35.9059 41.8611C35.0215 41.8611 34.3046 42.5652 34.3046 43.4337C34.3046 44.3023 35.0215 45.0064 35.9059 45.0064Z" fill="white"/>
</g>
<defs>
<clipPath id="clip0_1979_208">
<rect width="56" height="55" fill="white"/>
</clipPath>
</defs>
</svg>
